<svg xmlns="http://www.w3.org/2000/svg" width="128" height="109.449">
  <linearGradient id="a" gradientUnits="userSpaceOnUse" x1="36.216" y1="52.297" x2="117.809" y2="91.849">
    <stop offset="0" stop-color="#c8c3be"/>
    <stop offset=".994" stop-color="#b4a090"/>
  </linearGradient>
  <path fill="url(#a)" d="M120.136 23.841l1.924-.146s.325-.195.65.52 5.187 79.324 5.187 79.324.035.754-.35.952c-.239.123-2.407.331-3.374.331-.18 0-115.24 5.585-115.407 4.544-.231-1.442-.518-.122-.73-2.92-.565-7.485 114.36-3.852 113.854-11.205-.634-9.24-4.486-71.192-1.754-71.4z"/>
  <linearGradient id="b" gradientUnits="userSpaceOnUse" x1="4.358" y1="37.159" x2="112.579" y2="89.619">
    <stop offset="0" stop-color="#fafaf0"/>
    <stop offset=".202" stop-color="#f1f1e9"/>
    <stop offset=".492" stop-color="#dcdbda"/>
    <stop offset=".865" stop-color="#d5d4d0"/>
    <stop offset=".994" stop-color="#cfcbbf"/>
  </linearGradient>
  <path fill="url(#b)" d="M3.521 33.503c.065-.325-.13-.195.455-.585s116.987-9.224 116.987-9.224.325-.195.65.52 5.187 79.324 5.187 79.324.035.754-.35.952c-.239.123-2.409.269-3.374.331-14.586.946-71.951 3.198-71.951 3.198l-42.092 1.429s-.715-.195-.844-.39-3.768-57.875-3.768-57.875l-.9-17.68zm3.99 4.763c.028 1.206.643 2.015 1.484 2.188.898-.185 1.889-1.068 1.903-2.034.014-1.021-.43-2.157-1.675-2.383-.731.195-1.739 1.077-1.712 2.229zM114.58 30.52c.148 1.306.79 2.029 1.855 2.126.878-.043 2.383-.988 2.38-2.324-.002-1.113-.739-2.295-2.311-2.406-.893.291-2.065 1.357-1.924 2.604z"/>
  <linearGradient id="c" gradientUnits="userSpaceOnUse" x1="8.037" y1="36.073" x2="8.037" y2="39.887">
    <stop offset="0" stop-color="#88897d"/>
    <stop offset=".994" stop-color="#beaa9b"/>
  </linearGradient>
  <path fill="url(#c)" d="M7.511 38.266c-.027-1.152.981-2.034 1.712-2.229a2.495 2.495 0 00-.348-.041c-.71-.029-2.053.942-2.023 2.27.031 1.328.772 2.177 1.745 2.223a1.61 1.61 0 00.398-.035c-.841-.173-1.456-.982-1.484-2.188z"/>
  <linearGradient id="d" gradientUnits="userSpaceOnUse" x1="115.125" y1="28.213" x2="115.926" y2="32.754">
    <stop offset="0" stop-color="#887c7e"/>
    <stop offset=".994" stop-color="#b4a090"/>
  </linearGradient>
  <path fill="url(#d)" d="M114.58 30.52c-.142-1.248 1.031-2.314 1.923-2.604-1.82.002-2.423 1.721-2.384 2.594.054 1.209.976 1.991 2.067 2.136-.845-.256-1.479-1.009-1.606-2.126z"/>
  <path d="M56.455 57.89c-.841.041-2.741-.347-3.211-1.262-.498-.664-.984-6.93-.307-12.405-.878.056-5.681 10.268-6.291 12.807-.707.206-2.595-.914-2.685-1.402-.2-1.031.477-5.386.739-6.842.559-2.954 1.338-6.476 1.918-7.749.086-.177.174-.278.355-.328.509-.13 1.92.402 2.059.736-.143.105-.261.418-.492 1.176-.446 1.456-1.048 4.233-1.449 6.444a90.67 90.67 0 00-.608 3.682c1.814-3.772 4.762-8.72 6.268-9.716.323-.213 2.039.154 2.601 1.057-.308 2.821-.293 8.191.05 11.339.422-1.615 1.184-4.019 2.226-6.848 1.326-3.644 4.324-9.886 4.792-10.152.416-.146 1.718.402 1.803.764-.635.199-3.866 6.06-5.512 10.556-1.208 3.321-2.724 7.839-2.256 8.143zm5.269-4.045c.018.54.284.836.613.818 1.188-.062 3.464-1.58 5.634-4.092.202.008.109.52.059.659-.65 1.399-3.836 4.752-5.573 4.84-1.517.077-3.139-1.326-3.18-2.557-.103-3.098 3.16-9.089 5.92-9.266 1.536-.099 3.075 1.01 3.126 2.565.046 1.4-2.921 3.634-4.681 4.161-.598.189-1.13.16-1.386.175-.35 1.005-.557 1.964-.532 2.697zm4.338-8.391c-.896.056-2.483 2.461-3.451 4.783.419-.063.675-.097 1.106-.335.882-.478 2.371-1.983 2.681-3.673.094-.511-.044-.794-.336-.775zm7.283-4.751c-.34.239-2.263 3.632-2.254 3.886-.311.02-.906-.254-.92-.683-.012-.351.684-3.697 1.173-3.887.488-.19 1.823.285 2.001.684zm4.299 7.638c-.087-.428.203-2.769.372-3.744-1.487 1.589-3.15 3.949-4.366 6.53-.445.946-1.379 3.189-1.351 4.048.003.098.026.233.046.291-.828-.114-2.122-1.042-2.139-1.568-.029-.877 1.881-7.417 3.186-9.535.052-.101.178-.149.306-.157.658-.042 1.872.645 1.859.823-.273.057-1.189 2.311-1.971 4.691.913-2.328 3.769-6.301 4.5-6.348 1.006-.066 2.356.873 2.443 1.301-.068.163-.608 1.006-1.13 1.867-.556.921-1.108 1.979-1.196 2.083-.145.048-.536-.145-.559-.282zm3.077 4.478c.018.552.284.854.613.836 1.188-.064 3.464-1.616 5.634-4.184.202.008.109.531.059.673-.65 1.429-3.836 4.857-5.573 4.948-1.518.079-3.139-1.353-3.18-2.612-.103-3.166 3.16-9.288 5.921-9.47 1.536-.101 3.075 1.031 3.126 2.619.046 1.43-2.921 3.714-4.681 4.253-.598.193-1.13.164-1.386.179-.351 1.029-.557 2.009-.533 2.758zm4.338-8.576c-.896.058-2.483 2.516-3.45 4.888.419-.064.675-.099 1.106-.342.882-.488 2.371-2.027 2.681-3.754.093-.521-.044-.81-.337-.792zM26.766 89.574c-8.03.075-11.001-8.293-11.215-14.397-.214-6.1 2.169-14.595 10.199-14.951 8.031-.362 11.001 8.111 11.216 14.369.214 6.262-2.169 14.899-10.2 14.979zm-.819-23.662c-3.906.148-3.99 5.287-3.858 9.091.134 3.85.574 8.936 4.48 8.873 3.906-.065 3.989-5.301 3.858-9.099-.132-3.843-.574-9.014-4.48-8.865zm21.61 21.845l.3 8.9-6.407.017-1.024-30.098 6.407-.243.011 1.641s2.116-2.409 4.485-2.502c5.705-.226 8.42 6.1 8.58 10.91.173 5.182-1.109 12.839-8.701 12.931-2.061.024-3.651-1.556-3.651-1.556zm-.499-14.773l.165 4.877c.086 2.553.471 6.151 3.631 6.095 2.896-.052 2.641-5.057 2.575-7.032-.068-2.02-.245-6.012-3.01-5.921-1.801.06-2.425 1.085-3.361 1.981zm21.412 4.565a4.265 4.265 0 00-.019.749c.071 2.149 1.006 5.217 3.507 5.168 1.975-.039 4.408-.843 5.989-2.152l1.982 4.218c-2.045 1.927-5.329 3.532-8.006 3.568-6.758.089-9.691-6.281-9.898-12.496-.206-6.212 3.786-11.71 9.885-11.96 4.652-.192 8.561 3.815 8.854 8.783.086 1.278.17 2.508.211 3.787l-12.505.335zm3.282-8.394c-1.799.065-2.863 2.442-2.985 4.083l6.099-.192c-.103-1.834-1.14-3.962-3.114-3.891zm23.869 1.766c-.031-.963-.311-1.483-1.145-1.452-1.975.073-3.035 1.263-4.151 2.068l.531 16.525-6.363.1-.755-23.299 6.363-.265.055 1.723c1.327-1.109 3.169-2.579 4.924-2.655 5.661-.246 6.79 3.491 6.903 7.03l.545 17.175-6.363.106-.544-17.056zm12.568 7.078c-.427-5.166-.955-9.396-1.119-14.564-.085-2.681-.118-6.535.547-9.109l6.511-1.237c-.552 3.423-.969 6.933-.861 10.368l.451 14.387-5.529.155zm-.969 6.862c-.069-2.195 1.855-3.854 3.873-3.904 1.975-.049 3.864 1.38 3.932 3.545.068 2.165-1.854 3.872-3.917 3.907-1.931.033-3.82-1.4-3.888-3.548z" fill="#0D0D0D" opacity=".1"/>
  <path fill="#25272D" d="M55.906 57.012c-.841.041-2.741-.347-3.211-1.262-.498-.664-.984-6.93-.307-12.404-.878.056-5.681 10.268-6.291 12.807-.707.206-2.595-.914-2.685-1.402-.2-1.031.477-5.386.739-6.842.559-2.954 1.338-6.476 1.918-7.749.086-.177.174-.278.355-.328.509-.13 1.92.402 2.059.736-.143.105-.261.418-.492 1.176-.446 1.456-1.048 4.233-1.449 6.444a90.67 90.67 0 00-.608 3.682c1.814-3.772 4.762-8.72 6.268-9.716.323-.213 2.039.154 2.601 1.057-.308 2.821-.293 8.191.05 11.339.422-1.615 1.184-4.019 2.226-6.848 1.326-3.644 4.324-9.886 4.792-10.152.416-.146 1.718.402 1.803.764-.635.199-3.866 6.06-5.512 10.556-1.208 3.32-2.724 7.838-2.256 8.142zm5.269-4.045c.018.54.284.836.613.818 1.188-.062 3.464-1.58 5.634-4.092.202.008.109.52.059.659-.65 1.399-3.836 4.752-5.573 4.84-1.517.077-3.139-1.326-3.18-2.557-.103-3.098 3.16-9.089 5.92-9.266 1.536-.099 3.075 1.01 3.126 2.565.046 1.4-2.921 3.634-4.681 4.161-.598.189-1.13.16-1.386.175-.35 1.005-.556 1.963-.532 2.697zm4.338-8.392c-.896.056-2.483 2.461-3.451 4.783.419-.063.675-.097 1.106-.335.882-.478 2.371-1.983 2.681-3.673.094-.51-.043-.793-.336-.775zm7.283-4.75c-.34.239-2.263 3.632-2.254 3.886-.311.02-.906-.254-.92-.683-.012-.351.684-3.697 1.173-3.887.488-.191 1.823.285 2.001.684zm4.299 7.638c-.087-.428.203-2.769.372-3.744-1.487 1.589-3.15 3.949-4.366 6.53-.445.946-1.379 3.189-1.351 4.048.003.098.026.233.046.291-.828-.114-2.122-1.042-2.139-1.568-.029-.877 1.881-7.417 3.186-9.535.052-.101.178-.149.306-.157.658-.042 1.872.645 1.859.823-.273.057-1.189 2.311-1.971 4.691.913-2.328 3.769-6.301 4.5-6.348 1.006-.066 2.356.873 2.443 1.301-.068.163-.608 1.006-1.13 1.867-.556.921-1.108 1.979-1.196 2.083-.145.048-.536-.145-.559-.282zm3.077 4.478c.018.552.284.854.613.836 1.188-.064 3.464-1.616 5.634-4.184.202.008.109.531.059.673-.65 1.429-3.836 4.857-5.573 4.948-1.518.079-3.139-1.353-3.18-2.612-.103-3.166 3.16-9.288 5.921-9.47 1.536-.101 3.075 1.031 3.126 2.619.046 1.43-2.921 3.714-4.681 4.253-.598.193-1.13.164-1.386.179-.351 1.029-.557 2.008-.533 2.758zm4.338-8.576c-.896.058-2.483 2.516-3.45 4.888.419-.064.675-.099 1.106-.342.882-.488 2.371-2.027 2.681-3.754.094-.522-.044-.811-.337-.792z"/>
  <path fill="#930000" d="M26.218 88.695c-8.03.075-11.001-8.293-11.215-14.397-.214-6.1 2.169-14.595 10.199-14.951 8.031-.362 11.001 8.111 11.216 14.369.213 6.262-2.17 14.899-10.2 14.979zm-.82-23.661c-3.906.148-3.99 5.287-3.858 9.091.134 3.85.574 8.936 4.48 8.873 3.906-.065 3.989-5.301 3.858-9.099-.132-3.843-.574-9.014-4.48-8.865zm21.61 21.845l.3 8.9-6.407.017-1.024-30.098 6.407-.243.011 1.641s2.116-2.409 4.485-2.502c5.705-.226 8.42 6.1 8.58 10.91.173 5.182-1.109 12.839-8.701 12.931-2.061.023-3.651-1.556-3.651-1.556zm-.499-14.773l.165 4.877c.086 2.553.471 6.151 3.631 6.095 2.896-.052 2.641-5.057 2.575-7.032-.068-2.02-.245-6.012-3.01-5.921-1.8.06-2.425 1.085-3.361 1.981zm21.412 4.565a4.265 4.265 0 00-.019.749c.071 2.149 1.006 5.217 3.507 5.168 1.975-.039 4.408-.843 5.989-2.152l1.982 4.218c-2.045 1.927-5.329 3.532-8.006 3.568-6.758.089-9.691-6.281-9.898-12.496-.206-6.212 3.786-11.71 9.885-11.96 4.652-.192 8.561 3.815 8.854 8.783.086 1.278.17 2.508.211 3.787l-12.505.335zm3.282-8.394c-1.799.065-2.863 2.442-2.985 4.083l6.099-.192c-.103-1.834-1.14-3.963-3.114-3.891zm23.869 1.766c-.031-.963-.311-1.483-1.145-1.452-1.975.073-3.035 1.263-4.151 2.068l.531 16.525-6.363.1-.754-23.299 6.363-.265.055 1.723c1.327-1.109 3.169-2.579 4.924-2.655 5.661-.246 6.79 3.491 6.903 7.03l.545 17.175-6.363.106-.545-17.056zm12.568 7.078c-.427-5.166-.955-9.396-1.119-14.564-.085-2.681-.118-6.535.547-9.109l6.511-1.237c-.552 3.423-.969 6.933-.861 10.368l.451 14.387-5.529.155zm-.969 6.862c-.069-2.195 1.855-3.854 3.873-3.904 1.975-.049 3.864 1.38 3.932 3.545.068 2.165-1.854 3.872-3.917 3.907-1.931.033-3.82-1.401-3.888-3.548z"/>
  <linearGradient id="e" gradientUnits="userSpaceOnUse" x1="64.667" y1="93.832" x2="70.46" y2="98.522">
    <stop offset="0" stop-color="#dcd2d2"/>
    <stop offset=".994" stop-color="#c8beb4"/>
  </linearGradient>
  <path fill="none" stroke="url(#e)" stroke-width=".878" stroke-miterlimit="10" d="M67.922 100.762s-1.46-1.376-2.255-2.093c-.795-.716-1.39-1.838-1.435-2.703-.011-.205-.094-1.81 1.559-1.896s1.844 1.167 1.844 1.167.061-1.266 1.713-1.352c1.653-.086 1.736 1.52 1.747 1.724.045.866-.431 2.043-1.147 2.838-.716.795-2.026 2.315-2.026 2.315z"/>
  <linearGradient id="f" gradientUnits="userSpaceOnUse" x1="64.667" y1="94.435" x2="70.751" y2="99.362">
    <stop offset="0" stop-color="#dcd2d2"/>
    <stop offset=".994" stop-color="#c8beb4"/>
  </linearGradient>
  <path fill="none" stroke="url(#f)" stroke-width=".878" stroke-miterlimit="10" d="M67.186 96.617c-.985-.321-1.387-.575-2.504-.506-1.08.066-1.616.73-1.322 1.289.315.599 1.343.656 2.171.329 0 0 .966-.391 2.187-.876 1.222-.485 2.078-1.019 2.692-1.051 1.228-.064 1.937.515 1.685 1.144-.251.629-1.268.792-2.125.552.001.001-2.238-.703-2.784-.881z"/>
  <linearGradient id="g" gradientUnits="userSpaceOnUse" x1="63.061" y1="96.643" x2="71.927" y2="96.643">
    <stop offset="0" stop-color="#dcd2d2"/>
    <stop offset=".994" stop-color="#c8beb4"/>
  </linearGradient>
  <linearGradient id="h" gradientUnits="userSpaceOnUse" x1="64.49" y1="94.25" x2="70.488" y2="99.108">
    <stop offset="0" stop-color="#c8c3be"/>
    <stop offset=".994" stop-color="#a05978"/>
  </linearGradient>
  <path fill="url(#g)" stroke="url(#h)" stroke-width=".768" stroke-miterlimit="10" d="M66.967 96.398c-.985-.321-1.387-.575-2.504-.506-1.08.066-1.616.73-1.322 1.289.315.599 1.343.656 2.171.329 0 0 .966-.391 2.187-.876s2.078-1.019 2.692-1.051c1.228-.064 1.937.515 1.685 1.144s-1.268.792-2.125.552c0 0-2.239-.703-2.784-.881z"/>
  <linearGradient id="i" gradientUnits="userSpaceOnUse" x1="64.009" y1="97.102" x2="70.879" y2="97.102">
    <stop offset="0" stop-color="#dcd2d2"/>
    <stop offset=".994" stop-color="#c8beb4"/>
  </linearGradient>
  <linearGradient id="j" gradientUnits="userSpaceOnUse" x1="64.492" y1="93.645" x2="70.199" y2="98.267">
    <stop offset="0" stop-color="#c8c3be"/>
    <stop offset=".994" stop-color="#a05978"/>
  </linearGradient>
  <path fill="url(#i)" stroke="url(#j)" stroke-width=".768" stroke-miterlimit="10" d="M67.703 100.542s-1.46-1.376-2.255-2.093c-.795-.716-1.39-1.838-1.435-2.704-.011-.205-.094-1.81 1.559-1.896 1.653-.086 1.844 1.167 1.844 1.167s.061-1.266 1.713-1.352 1.736 1.52 1.747 1.724c.045.866-.431 2.043-1.147 2.838-.716.796-2.026 2.316-2.026 2.316z"/>
  <linearGradient id="k" gradientUnits="userSpaceOnUse" x1="64.49" y1="94.25" x2="70.488" y2="99.108">
    <stop offset="0" stop-color="#c8c3be"/>
    <stop offset=".994" stop-color="#a05978"/>
  </linearGradient>
  <path fill="none" stroke="url(#k)" stroke-width=".768" stroke-miterlimit="10" d="M66.967 96.398c-.985-.321-1.387-.575-2.504-.506-1.08.066-1.616.73-1.322 1.289.315.599 1.343.656 2.171.329 0 0 .966-.391 2.187-.876s2.078-1.019 2.692-1.051c1.228-.064 1.937.515 1.685 1.144s-1.268.792-2.125.552c0 0-2.239-.703-2.784-.881z"/>
  <g>
    <path opacity=".2" fill="#37383C" d="M10.086 36.243c.503.411.714 1.416.714 1.341s1.329-2.72 1.873-3.569c.192-.299.63-.861.857-1.134.195-.236.823-.906.823-.906l-.842.07-3.425 4.198zm104.703-12.079s.066 1.064.295 1.376c.148.202.899 1.203 1.29 1.798.213.324.217.555.244.579.033.03-.346-.036-.751 0-.506.045-.724.389-.724.389l-1.735-4.023 1.381-.119z"/>
    <path fill="#37383C" d="M31.729 0h-2.196s-6.431 11.555-7.802 13.794-3.748 6.308-4.023 6.445c-.274.137-2.103 4.114-2.88 4.754-.777.64-3.611 6.765-3.611 6.765s-2.651 4.114-2.651 4.571.32.96.869 1.097c.549.137 1.051-.229 1.326-.686.274-.457 4.206-7.177 4.297-7.36.091-.183.457-.046.594-.366.137-.32 3.611-6.903 3.84-7.725s6.673-11.609 7.13-12.523C27.079 7.852 31.729 0 31.729 0zm65.427 0h1.976s3.922 6.755 4.608 7.806c.686 1.051 3.748 6.034 3.977 6.217.229.183 1.434 2.043 1.891 2.82.457.777 2.726 4.128 2.863 4.22.137.091 1.646 2.514 1.646 2.788s1.143 2.971 1.371 3.154c.229.183.869.229.914.777.046.549.091 1.6-.32 1.737-.411.137-1.544.437-1.828 0-.594-.914-2.057-4.577-2.286-5.031s-.777-1.368-.914-1.643c-.137-.274-4.891-7.04-4.937-7.268-.046-.229-.411-.914-.457-.914-.046 0-4.754-7.725-5.348-8.777C99.717 4.835 97.156 0 97.156 0z"/>
    <path opacity=".5" fill="#9094A0" d="M15.918 24.831l.465.186s-.558.744-.697 1.302-.046 1.255-.558 1.488c-.511.232-.93.837-1.348 1.72-.418.883-1.906 3.022-2.092 3.58-.186.558-1.162 1.461-1.162 1.033s2.046-3.494 2.278-4.076 2.788-4.814 3.114-5.233zm89.997-10.694c-.101-.366.759.692 1.508 1.168s3.325 4.758 3.606 4.975c.281.216.796.519.796.779s-.515.389-.843.519-.094-.087-.094-.303-2.294-3.201-2.575-3.85c-.281-.65-2.314-2.986-2.398-3.288z"/>
  </g>
</svg>
